<?xml version="1.0" encoding="utf-8"?><svg xmlns="http://www.w3.org/2000/svg" xmlns:xlink="http://www.w3.org/1999/xlink"><symbol viewBox="0 0 16 14" id="Arrow" xmlns="http://www.w3.org/2000/svg"><path fill="#f7f7f7" d="M8.505 12.241L12.659 8H.98A.99.99 0 010 7c0-.553.44-1 .98-1h11.676L8.437 1.694a1.007 1.007 0 01-.274-.695c0-.552.438-1 .98-1a.97.97 0 01.68.281l5.877 6c.185.182.3.437.3.72v.004c0 .283-.115.538-.3.72l-5.877 6-.003-.003a.965.965 0 01-.677.278.99.99 0 01-.98-1c0-.303.133-.574.342-.758z"/></symbol><symbol viewBox="0 0 8 16" id="fb" xmlns="http://www.w3.org/2000/svg"><path fill="#fff" d="M3.267.365a1.61 1.61 0 01.286-.137c.095-.038.202-.072.322-.103L4.53 0h.43l3.028.229H8l-.31 2.7h-.012l-1.67-.172h-.047l-.167.022-.06.023-.19.092a.155.155 0 00-.096.057l-.143.149a.592.592 0 00-.083.137.84.84 0 00-.06.149.976.976 0 00-.035.171c-.009.053-.012.11-.012.172l.023 1.692 2.456.024-.357 2.676-2.122.08v7.788L5.103 16H1.788V8.131H0V5.444h1.717V5.42l.012-.034.06-2.87.023-.16v-.08l.024-.08a.613.613 0 01.048-.173.519.519 0 01.071-.148c.032-.114.076-.217.131-.309.048-.099.108-.194.179-.285.056-.085.123-.164.203-.24.071-.085.147-.161.226-.23V.8z"/></symbol><symbol viewBox="0 0 16 16" id="inst" xmlns="http://www.w3.org/2000/svg"><path fill="#f2f2f2" d="M16 3.091v9.817a3.095 3.095 0 01-3.092 3.091H3.092A3.095 3.095 0 010 12.908V3.09A3.095 3.095 0 013.092 0h9.816A3.095 3.095 0 0116 3.091zm-4.564-1.24l.01 2.712 2.702-.009V1.842l-.353.002zM5.184 8A2.82 2.82 0 008 10.815 2.82 2.82 0 0010.816 8c0-.614-.2-1.18-.533-1.643A2.814 2.814 0 008 5.183c-.94 0-1.771.465-2.284 1.174A2.802 2.802 0 005.184 8zm9.257-1.643h-2.39c.207.508.324 1.062.324 1.643A4.38 4.38 0 018 12.374 4.38 4.38 0 013.625 8c0-.581.116-1.135.322-1.643H1.56v6.55c0 .846.687 1.534 1.533 1.534h9.816c.845 0 1.533-.688 1.533-1.533z"/></symbol><symbol viewBox="0 0 20 16" id="message-icon" xmlns="http://www.w3.org/2000/svg"><path fill="#fff" d="M9.99 11.227zm0 0c.314.002.619-.159.747-.237l1.858-1.72 6.044 4.824-4.625-6.137L19.6 2.788v11.235a1.2 1.2 0 01-1.2 1.2H1.6a1.2 1.2 0 01-1.2-1.2V2.816l5.519 5.092L1.377 14.1 7.5 9.366l1.77 1.635c.356.266.731.226.72.226zm.773-.253c.048-.031.054-.04 0 0zm-.769-2.077L.4 2.023a1.2 1.2 0 011.2-1.2h16.8a1.2 1.2 0 011.2 1.2z"/></symbol><symbol viewBox="0 0 13 13" id="star" xmlns="http://www.w3.org/2000/svg"><defs><clipPath id="ea"><path fill="#fff" d="M6.583-.18L8.37 4.781h4.798L9.253 7.696l1.4 5.117-4.07-3.068-4.069 3.068 1.4-5.117-3.915-2.914h4.798z"/></clipPath></defs><path fill="#787878" d="M6.583-.18L8.37 4.781h4.798L9.253 7.696l1.4 5.117-4.07-3.068-4.069 3.068 1.4-5.117-3.915-2.914h4.798z"/><path fill="none" stroke="#787878" stroke-linecap="round" stroke-linejoin="round" stroke-miterlimit="20" stroke-width="2" d="M6.583-.18v0L8.37 4.781v0h4.798v0L9.253 7.696v0l1.4 5.117v0l-4.07-3.068v0l-4.069 3.068v0l1.4-5.117v0L-.002 4.782v0h4.798v0z" clip-path="url(#ea)"/></symbol><symbol viewBox="0 0 13 13" id="star-fill" xmlns="http://www.w3.org/2000/svg"><path fill="#f2d800" d="M6.583-.18L8.37 4.781h4.798L9.253 7.696l1.4 5.117-4.07-3.068-4.069 3.068 1.4-5.117-3.915-2.914h4.798z"/></symbol></svg>